<svg height="30" viewBox="0 0 20 30" width="20" xmlns="http://www.w3.org/2000/svg"><g fill="none"><path d="m2.4675 26.61632c-.54684-3.41964-2.3667-26.21228-2.3667-26.21228l19.41122-.168s-1.48344 21.73802-1.85934 26.04428c-.30996 3.8388-14.67656 3.82284-15.18518.336zm.40194-23.54402c.6636 9.5676 1.4175 18.72368 1.83834 22.54022 4.71324 1.80474 6.72428 1.75266 10.62314.04116.34104-4.48434 1.20414-16.30532 1.59516-23.00012z" fill="#000"/><path d="m6.46422 24.08582c-.28728-2.0244-.95256-11.4967-1.21716-14.68156 6.6591 2.20962 3.93254-4.0005 9.53156-1.59558-.39816 3.18486-.84378 12.89152-.97944 15.4405-1.49856 1.53258-5.59112 2.13444-7.33496.83664z" fill="#800000"/></g></svg>