<svg height="37" viewBox="0 0 24 37" width="24" xmlns="http://www.w3.org/2000/svg"><g fill="none"><path d="m4.26977994.02083908 15.12299996-.02083908c7.2557143 9.59448276 4.9152858 22.9642414-5.9027142 24.2294713l.261 7.0219195c10.662.5328851 9.9681428 5.4649425-1.7117143 5.4649425-12.73457146 0-12.92528575-4.8912299-2.29671432-5.4589885l.43757142-7.0236207c-10.86985713-1.2911724-13.35171427-15.80665513-5.91042856-24.21288502zm7.41985716 21.81468962c9.6338571 0 11.9987143-11.709862 6.0171428-19.39140226l-11.78399996.01616092c-5.95114286 6.8785977-3.867 19.37524134 5.76685716 19.37524134z" fill="#000"/><path d="m5.3069228 8.52190805c6.5164286 1.95632185 7.2342857-3.48990805 12.4971429-1.44555173 2.6052857 3.38401148 1.4408571 12.93256318-6.0072858 12.93256318-7.1078571 0-8.31042853-8.7086092-6.4898571-11.48701145z" fill="#de61d2"/></g></svg>