<svg height="64" viewBox="0 0 16 64" width="16" xmlns="http://www.w3.org/2000/svg"><g fill="none" fill-rule="nonzero"><path d="m10.7444211 58.4576c7.784421.8413867 6.8698947 5.3986133-2.46357899 5.3986133-10.21978948 0-10.74189474-4.5576533-2.84673685-5.3986133.568-.8768 1.12084211-2.1346133 1.12084211-3.72096 0-4.6545067-6.33263158-8.0567467-6.09852632-14.3761067.17642106-4.7607466 1.10652632-18.9576533 1.10652632-18.9576533l12.17684213-.11136s1.0892631 13.40416 1.2155789 19.1534933c.1461053 6.65344-5.62189472 9.3294934-5.70399998 14.1056-.02736842 1.5825067.744 2.95168 1.49305268 3.9069867zm1.9330526-18.8834133c-.2126316-5.3981867-1.0661053-15.8122667-1.0661053-15.8122667l-7.8273684.1117867s-.80631579 11.744-.86778947 15.9633066c-.07242106 4.9710934 3.09431579 8.51456 4.784 8.51456 1.69010526 0 5.19873687-3.1581866 4.97726317-8.7773866zm-3.26105265-21.40928c-3.22736842 0-3.08126316-4.6724267-.05178947-4.6724267 3.01810522 0 2.99915792 4.6724267.05178947 4.6724267zm1.19747365-10.11072003c-5.55578944 0-5.30399996-8.04394667-.0888421-8.04394667 5.1949474 0 5.1625263 8.04394667.0888421 8.04394667zm-6.36463154 3.89248003c-3.22736842 0-3.08126316-4.6724267-.05178948-4.6724267 3.01810527 0 2.9991579 4.6724267.05178948 4.6724267z" fill="#000"/><path d="m4.93431579 40.0349867c.01894737-2.5476267.45978947-10.2984534.45978947-10.2984534l4.63073684-.9070933s.6265263 7.9735467.7267368 11.2452267c.1048422 3.424-1.34231574 5.8043733-2.92926311 5.8043733s-2.91031579-2.8151467-2.888-5.8440533z" fill="#de61d2"/></g></svg>