<svg height="37" viewBox="0 0 24 37" width="24" xmlns="http://www.w3.org/2000/svg"><g fill="none"><path d="m20.8709471 2.48336866c-3.7030702 5.42863158 1.3004386 8.55242104 1.7013158 13.69010524 1.0929824 14.008-22.6548246 14.9389474-21.53377197-.1562105.36973684-4.976 4.85482456-8.63284211 1.31491228-13.61178948.13114035-.32884211.53596491-1.38357895.53596491-1.38357895l17.47982458-.02189485c-.0004386-.00042094.3960526 1.12800012.5017544 1.48336854zm-15.2789474.99536842c2.35877193 4.432-1.7377193 9.49052632-1.97675438 12.56294732-.86666667 11.1549474 16.98903508 10.6618948 16.36315788.111579-.1754386-2.9608421-4.5960526-7.79536843-2.4421053-12.69010527zm3.28333334 28.39073682c-.27675439-1.4943158.68377193-3.2206316 2.77587716-3.2206316 2.0780702 0 2.9714913 1.7174737 2.706579 3.2088421 10.2013158.6922106 9.275 5.3709474-2.4254386 5.3709474-12.74210528-.000421-13.20789476-4.6277895-3.05701756-5.3591579z" fill="#000"/><path d="m11.8284032 22.3928423c-5.8864035 0-6.35307016-5.6947368-5.47456139-7.3330526 4.65657899 1.7776842 5.61228069-2.2008421 10.50175439-1.1418947 2.1364035 2.2395789.4241228 8.4749473-5.027193 8.4749473z" fill="#fdff00"/></g></svg>